<!-- /assets/icons.svg -->
<svg xmlns="http://www.w3.org/2000/svg" style="display:none">

		<symbol id="whatsapp-omg" viewBox="-23 -21 682 682.66669">
<path d="m544.386719 93.007812c-59.875-59.945312-139.503907-92.9726558-224.335938-93.007812-174.804687 0-317.070312 142.261719-317.140625 317.113281-.023437 55.894531 14.578125 110.457031 42.332032 158.550781l-44.992188 164.335938 168.121094-44.101562c46.324218 25.269531 98.476562 38.585937 151.550781 38.601562h.132813c174.785156 0 317.066406-142.273438 317.132812-317.132812.035156-84.742188-32.921875-164.417969-92.800781-224.359376zm-224.335938 487.933594h-.109375c-47.296875-.019531-93.683594-12.730468-134.160156-36.742187l-9.621094-5.714844-99.765625 26.171875 26.628907-97.269531-6.269532-9.972657c-26.386718-41.96875-40.320312-90.476562-40.296875-140.28125.054688-145.332031 118.304688-263.570312 263.699219-263.570312 70.40625.023438 136.589844 27.476562 186.355469 77.300781s77.15625 116.050781 77.132812 186.484375c-.0625 145.34375-118.304687 263.59375-263.59375 263.59375zm144.585938-197.417968c-7.921875-3.96875-46.882813-23.132813-54.148438-25.78125-7.257812-2.644532-12.546875-3.960938-17.824219 3.96875-5.285156 7.929687-20.46875 25.78125-25.09375 31.066406-4.625 5.289062-9.242187 5.953125-17.167968 1.984375-7.925782-3.964844-33.457032-12.335938-63.726563-39.332031-23.554687-21.011719-39.457031-46.960938-44.082031-54.890626-4.617188-7.9375-.039062-11.8125 3.476562-16.171874 8.578126-10.652344 17.167969-21.820313 19.808594-27.105469 2.644532-5.289063 1.320313-9.917969-.664062-13.882813-1.976563-3.964844-17.824219-42.96875-24.425782-58.839844-6.4375-15.445312-12.964843-13.359374-17.832031-13.601562-4.617187-.230469-9.902343-.277344-15.1875-.277344-5.28125 0-13.867187 1.980469-21.132812 9.917969-7.261719 7.933594-27.730469 27.101563-27.730469 66.105469s28.394531 76.683594 32.355469 81.972656c3.960937 5.289062 55.878906 85.328125 135.367187 119.648438 18.90625 8.171874 33.664063 13.042968 45.175782 16.695312 18.984374 6.03125 36.253906 5.179688 49.910156 3.140625 15.226562-2.277344 46.878906-19.171875 53.488281-37.679687 6.601563-18.511719 6.601563-34.375 4.617187-37.683594-1.976562-3.304688-7.261718-5.285156-15.183593-9.253906zm0 0" fill-rule="evenodd"/>
</symbol>
	
			<symbol id="whatsapp-omg" viewBox="-23 -21 682 682.66669">
<path d="m544.386719 93.007812c-59.875-59.945312-139.503907-92.9726558-224.335938-93.007812-174.804687 0-317.070312 142.261719-317.140625 317.113281-.023437 55.894531 14.578125 110.457031 42.332032 158.550781l-44.992188 164.335938 168.121094-44.101562c46.324218 25.269531 98.476562 38.585937 151.550781 38.601562h.132813c174.785156 0 317.066406-142.273438 317.132812-317.132812.035156-84.742188-32.921875-164.417969-92.800781-224.359376zm-224.335938 487.933594h-.109375c-47.296875-.019531-93.683594-12.730468-134.160156-36.742187l-9.621094-5.714844-99.765625 26.171875 26.628907-97.269531-6.269532-9.972657c-26.386718-41.96875-40.320312-90.476562-40.296875-140.28125.054688-145.332031 118.304688-263.570312 263.699219-263.570312 70.40625.023438 136.589844 27.476562 186.355469 77.300781s77.15625 116.050781 77.132812 186.484375c-.0625 145.34375-118.304687 263.59375-263.59375 263.59375zm144.585938-197.417968c-7.921875-3.96875-46.882813-23.132813-54.148438-25.78125-7.257812-2.644532-12.546875-3.960938-17.824219 3.96875-5.285156 7.929687-20.46875 25.78125-25.09375 31.066406-4.625 5.289062-9.242187 5.953125-17.167968 1.984375-7.925782-3.964844-33.457032-12.335938-63.726563-39.332031-23.554687-21.011719-39.457031-46.960938-44.082031-54.890626-4.617188-7.9375-.039062-11.8125 3.476562-16.171874 8.578126-10.652344 17.167969-21.820313 19.808594-27.105469 2.644532-5.289063 1.320313-9.917969-.664062-13.882813-1.976563-3.964844-17.824219-42.96875-24.425782-58.839844-6.4375-15.445312-12.964843-13.359374-17.832031-13.601562-4.617187-.230469-9.902343-.277344-15.1875-.277344-5.28125 0-13.867187 1.980469-21.132812 9.917969-7.261719 7.933594-27.730469 27.101563-27.730469 66.105469s28.394531 76.683594 32.355469 81.972656c3.960937 5.289062 55.878906 85.328125 135.367187 119.648438 18.90625 8.171874 33.664063 13.042968 45.175782 16.695312 18.984374 6.03125 36.253906 5.179688 49.910156 3.140625 15.226562-2.277344 46.878906-19.171875 53.488281-37.679687 6.601563-18.511719 6.601563-34.375 4.617187-37.683594-1.976562-3.304688-7.261718-5.285156-15.183593-9.253906zm0 0" fill-rule="evenodd"/>
</symbol>

<symbol id="booth-carosel-icon" viewBox="0 0 24 24">
<path d="m16 3h-8c-1.103 0-2 .897-2 2v14c0 1.103.897 2 2 2h8c1.103 0 2-.897 2-2v-14c0-1.103-.897-2-2-2zm-14 4v10c0 1.103.897 2 2 2v-14c-1.103 0-2 .897-2 2zm18-2v14c1.103 0 2-.897 2-2v-10c0-1.103-.897-2-2-2z" fill="rgb(0,0,0)"/>
</symbol>

<symbol id="booth-studio-lighting" viewBox="0 0 64 64">
<path d="m30.798 11 20.202-8.506v35.012l-20.202-8.506h-4.798v-4h-2v18h-.607l14.293 14.293-1.414 1.414-14.272-14.272v14.565h-2v-14.586l-14.293 14.293-1.414-1.414 14.293-14.293h-.586v-18h-4v-10h4v-4h6v4h2v-4z"/>
</symbol>

<symbol id="booth-dslr-camera" viewBox="0 0 307.308 307.308">
<g id="_x31_1-DSLR_Camera">
	<path d="M284.909,66.146h-81.345l-16.426-27.595c-1.607-2.698-4.514-4.351-7.654-4.351h-51.662c-3.14,0-6.048,1.653-7.654,4.351   l-16.426,27.595H77.049v-6.082c0-4.919-3.988-8.907-8.907-8.907H35.185c-4.92,0-8.907,3.988-8.907,8.907v6.082h-3.88   C10.027,66.146,0,76.174,0,88.543v162.166c0,12.37,10.027,22.398,22.397,22.398h262.512c12.37,0,22.398-10.028,22.398-22.398   V88.543C307.308,76.174,297.279,66.146,284.909,66.146z M153.653,233.379c-35.21,0-63.753-28.543-63.753-63.754   c0-35.209,28.543-63.753,63.753-63.753c35.21,0,63.753,28.544,63.753,63.753C217.406,204.836,188.863,233.379,153.653,233.379z    M270.935,112.322h-27.91c-4.919,0-8.907-3.988-8.907-8.908c0-4.92,3.988-8.908,8.907-8.908h27.91c4.921,0,8.908,3.988,8.908,8.908   C279.843,108.334,275.855,112.322,270.935,112.322z"/>
	<circle cx="153.653" cy="169.625" r="44.538"/>
</g><g>
</g><g>
</g><g>
</g><g>
</g><g>
</g><g>
</g><g>
</g><g>
</g><g>
</g><g>
</g><g>
</g><g>
</g><g>
</g><g>
</g><g>
</g>
</symbol>





  <symbol id="user-setting-icon" viewBox="0 0 24 24">
  <g><path d="m9 10c-2.757 0-5-2.243-5-5s2.243-5 5-5 5 2.243 5 5-2.243 5-5 5zm0-9c-2.206 0-4 1.794-4 4s1.794 4 4 4 4-1.794 4-4-1.794-4-4-4z"/></g><g><path d="m8.5 21h-8c-.276 0-.5-.224-.5-.5v-4c0-2.481 2.019-4.5 4.5-4.5h6c.276 0 .5.224.5.5s-.224.5-.5.5h-6c-1.93 0-3.5 1.57-3.5 3.5v3.5h7.5c.276 0 .5.224.5.5s-.224.5-.5.5z"/></g><g><g><path d="m17 20c-1.378 0-2.5-1.122-2.5-2.5s1.122-2.5 2.5-2.5 2.5 1.122 2.5 2.5-1.122 2.5-2.5 2.5zm0-4c-.827 0-1.5.673-1.5 1.5s.673 1.5 1.5 1.5 1.5-.673 1.5-1.5-.673-1.5-1.5-1.5z"/></g><g><path d="m17.797 24h-1.595c-.516 0-.944-.387-.995-.901l-.127-1.271c-.303-.135-.592-.303-.865-.503l-1.168.527c-.469.214-1.02.035-1.277-.412l-.797-1.381c-.258-.447-.136-1.011.282-1.312l1.029-.74c-.02-.155-.034-.327-.034-.507s.014-.353.034-.507l-1.029-.74c-.418-.301-.54-.865-.282-1.312l.797-1.381c.258-.447.806-.624 1.277-.412l1.168.527c.273-.2.562-.368.865-.503l.127-1.271c.051-.513.479-.9.995-.9h1.595c.516 0 .944.387.995.901l.127 1.271c.304.135.593.304.865.503l1.168-.527c.471-.211 1.02-.034 1.277.412l.797 1.381c.258.447.136 1.011-.282 1.312l-1.029.74c.02.155.034.327.034.507s-.014.353-.034.507l1.029.74c.418.301.54.865.282 1.312l-.796 1.38c-.258.446-.805.625-1.277.412l-1.168-.527c-.273.2-.562.368-.865.503l-.128 1.272c-.051.513-.479.9-.995.9zm-3.512-3.755c.115 0 .229.04.321.117.339.284.714.501 1.113.647.18.066.307.229.326.42l.158 1.571h1.595l.157-1.571c.019-.191.146-.354.326-.42.399-.146.774-.364 1.113-.647.148-.123.352-.151.526-.072l1.444.652.797-1.381-1.278-.918c-.156-.112-.233-.304-.201-.493.037-.211.067-.426.067-.648s-.03-.437-.067-.648c-.033-.189.045-.38.201-.493l1.278-.918-.797-1.381-1.444.651c-.175.079-.379.051-.527-.072-.338-.284-.712-.501-1.113-.647-.18-.066-.307-.229-.326-.42l-.157-1.574h-1.595l-.157 1.571c-.019.191-.146.354-.326.42-.399.146-.774.364-1.113.647-.147.123-.351.152-.526.072l-1.444-.652-.797 1.381 1.278.918c.156.112.233.304.201.493-.037.211-.067.426-.067.648s.03.437.067.648c.033.189-.045.38-.201.493l-1.278.918.797 1.381 1.444-.651c.066-.028.135-.042.205-.042z"/></g></g>
  </symbol>

<symbol id="comment-alt-dots" viewBox="0 0 24 24">
<g clip-rule="evenodd" fill="rgb(0,0,0)" fill-rule="evenodd"><path d="m22 3.75c0-.55228-.4477-1-1-1h-18c-.55228 0-1 .44772-1 1v13c0 .5523.44772 1 1 1h5.08579l3.20711 3.2071c.3905.3905 1.0237.3905 1.4142 0l3.2071-3.2071h5.0858c.5523 0 1-.4477 1-1zm-2 1v11h-4.5c-.2652 0-.5196.1054-.7071.2929l-2.7929 2.7929-2.79289-2.7929c-.18754-.1875-.44189-.2929-.70711-.2929h-4.5v-11z"/><path d="m5 10.5c0-1.10457.89543-2 2-2s2 .89543 2 2c0 1.1046-.89543 2-2 2s-2-.8954-2-2z"/><path d="m10 10.5c0-1.10457.8954-2 2-2s2 .89543 2 2c0 1.1046-.8954 2-2 2s-2-.8954-2-2z"/><path d="m15 10.5c0-1.10457.8954-2 2-2s2 .89543 2 2c0 1.1046-.8954 2-2 2s-2-.8954-2-2z"/></g>
</symbol>

<symbol id="fancy-right-arrow-icom" viewBox="0 0 25 24">
<path clip-rule="evenodd" d="m20.25 11.0001c-2.438 0-4.66-2.22101-4.66-4.66001v-1h-2v1c0 1.774.778 3.438 1.999 4.66001h-12.339v2h12.339c-1.221 1.222-1.999 2.886-1.999 4.66v1h2v-1c0-2.439 2.222-4.66 4.66-4.66h1v-2z"  fill-rule="evenodd"/>
</symbol>

<symbol id="hand-shake-icon" viewBox="0 0 512 512">
<g>
	<g>
		<path d="M404.267,315.41c-10.048-20.949-45.995-50.027-80.725-78.123c-19.371-15.659-37.675-30.464-49.344-42.133    c-2.923-2.944-7.296-3.883-11.157-2.496c-7.189,2.603-11.627,4.608-15.125,6.165c-5.333,2.389-7.125,3.2-14.315,3.925    c-3.179,0.32-6.037,2.027-7.808,4.672c-15.083,22.549-30.699,20.629-41.131,17.131c-3.328-1.109-3.925-2.539-4.245-3.904    c-2.24-9.365,9.003-31.168,23.573-45.739c34.667-34.688,52.544-43.371,90.304-26.496c42.837,19.157,85.76,34.155,86.187,34.304    c5.611,1.941,11.648-1.003,13.589-6.571c1.92-5.568-1.003-11.648-6.571-13.589c-0.427-0.149-42.496-14.848-84.48-33.643    c-48.917-21.867-75.755-7.467-114.091,30.891c-14.592,14.592-34.411,44.117-29.291,65.771c2.197,9.216,8.683,16.043,18.325,19.221    c24.171,7.979,46.229,0.341,62.656-21.461c6.784-1.045,10.475-2.581,16.021-5.077c2.005-0.896,4.352-1.941,7.467-3.2    c12.203,11.456,28.672,24.789,46.016,38.805c31.36,25.365,66.923,54.123,74.923,70.763c3.947,8.213-0.299,13.568-3.179,16.021    c-4.224,3.627-10.005,4.779-13.141,2.581c-3.456-2.368-7.957-2.517-11.52-0.384c-3.584,2.133-5.589,6.165-5.141,10.304    c0.725,6.784-5.483,10.667-8.171,12.011c-6.827,3.456-13.952,2.859-16.619,0.384c-2.987-2.773-7.275-3.584-11.072-2.176    c-3.797,1.429-6.443,4.928-6.827,8.981c-0.64,6.997-5.824,13.717-12.587,16.341c-3.264,1.237-8,1.984-12.245-1.899    c-2.645-2.389-6.315-3.307-9.749-2.475c-3.477,0.853-6.272,3.371-7.488,6.72c-0.405,1.067-1.323,3.627-11.307,3.627    c-7.104,0-19.883-4.8-26.133-8.939c-7.488-4.928-54.443-39.957-94.997-73.92c-5.696-4.8-15.552-15.083-24.256-24.171    c-7.723-8.064-14.784-15.381-18.411-18.453c-4.544-3.84-11.264-3.264-15.04,1.259c-3.797,4.501-3.243,11.243,1.259,15.04    c3.307,2.795,9.707,9.557,16.768,16.917c9.515,9.941,19.349,20.224,25.963,25.771c39.723,33.259,87.467,69.163,96.981,75.413    c7.851,5.163,24.768,12.416,37.867,12.416c10.517,0,18.603-2.411,24.213-7.125c7.509,2.923,16.043,2.944,24.256-0.256    c9.707-3.755,17.685-11.328,22.208-20.501c8.405,1.792,18.027,0.533,26.773-3.861c8.555-4.309,14.741-10.901,17.813-18.603    c8.491,0.448,17.237-2.56,24.469-8.768C407.979,346.407,411.349,330.109,404.267,315.41z"/>
	</g>
</g><g>
	<g>
		<path d="M213.333,138.663h-96c-5.888,0-10.667,4.779-10.667,10.667s4.779,10.667,10.667,10.667h96    c5.888,0,10.667-4.779,10.667-10.667S219.221,138.663,213.333,138.663z"/>
	</g>
</g><g>
	<g>
		<path d="M435.52,292.711c-3.307-4.885-9.92-6.229-14.805-2.901l-31.189,20.949c-4.885,3.285-6.187,9.92-2.901,14.805    c2.069,3.051,5.44,4.715,8.875,4.715c2.027,0,4.096-0.576,5.931-1.813l31.189-20.949    C437.504,304.231,438.805,297.597,435.52,292.711z"/>
	</g>
</g><g>
	<g>
		<path d="M369.301,343.613c-7.637-6.016-41.792-40.981-62.912-62.997c-4.075-4.267-10.837-4.416-15.083-0.32    c-4.267,4.075-4.395,10.837-0.32,15.083c5.483,5.717,53.845,56.128,65.088,65.003c1.941,1.536,4.288,2.283,6.592,2.283    c3.136,0,6.272-1.408,8.405-4.075C374.72,353.981,373.931,347.261,369.301,343.613z"/>
	</g>
</g><g>
	<g>
		<path d="M326.677,365.01c-12.779-10.219-44.885-44.331-52.139-52.224c-4.011-4.352-10.731-4.608-15.083-0.64    c-4.331,3.989-4.629,10.752-0.64,15.083c0.384,0.405,38.699,41.771,54.528,54.443c1.963,1.557,4.331,2.325,6.656,2.325    c3.115,0,6.229-1.387,8.341-3.989C332.011,375.399,331.264,368.679,326.677,365.01z"/>
	</g>
</g><g>
	<g>
		<path d="M284.224,386.493c-15.211-12.821-46.336-45.952-52.416-52.459c-4.032-4.309-10.795-4.544-15.083-0.512    c-4.309,4.032-4.523,10.773-0.512,15.083c8.747,9.365,38.528,40.939,54.251,54.208c2.005,1.685,4.437,2.517,6.869,2.517    c3.029,0,6.059-1.301,8.171-3.797C289.301,397.01,288.725,390.29,284.224,386.493z"/>
	</g>
</g><g>
	<g>
		<path d="M124.672,120.253C106.389,102.93,33.28,97.319,11.307,96.018c-3.029-0.149-5.824,0.853-7.957,2.88    C1.216,100.903,0,103.719,0,106.663v192c0,5.888,4.779,10.667,10.667,10.667h64c4.608,0,8.704-2.965,10.133-7.36    c1.557-4.779,38.315-117.589,43.157-173.056C128.235,125.671,127.04,122.471,124.672,120.253z M66.88,287.997H21.333V118.098    c34.283,2.709,71.275,8.597,84.715,15.125C100.395,179.943,74.816,262.951,66.88,287.997z"/>
	</g>
</g><g>
	<g>
		<path d="M501.333,117.33c-83.755,0-130.219,21.44-132.16,22.336c-2.773,1.301-4.843,3.712-5.696,6.635s-0.427,6.059,1.173,8.661    c13.184,21.227,54.464,139.115,62.4,167.872c1.28,4.629,5.483,7.829,10.283,7.829h64c5.888,0,10.667-4.779,10.667-10.667v-192    C512,122.087,507.221,117.33,501.333,117.33z M490.667,309.33h-45.355c-10.112-32.939-39.979-118.827-56.64-154.325    c16.277-5.525,51.243-15.019,101.995-16.213V309.33z"/>
	</g>
</g><g>
</g><g>
</g><g>
</g><g>
</g><g>
</g><g>
</g><g>
</g><g>
</g><g>
</g><g>
</g><g>
</g><g>
</g><g>
</g><g>
</g><g>
</g>
</symbol>

<symbol id="join-member-icon" viewBox="0 0 64 64">
<g id="Layer_3"><g><g id="ARC_424_"><g><path d="m14.186 42.406c-.047 0-.095-.003-.144-.01-2.285-.33-4.477-1.047-6.513-2.132-.487-.26-.672-.866-.412-1.354.261-.486.864-.671 1.354-.412 1.83.977 3.801 1.621 5.856 1.917.547.079.926.586.848 1.133-.072.499-.5.858-.989.858z"/></g></g><g id="ARC_423_"><g><path d="m49.814 42.406c-.489 0-.917-.359-.989-.857-.078-.547.301-1.054.848-1.133 2.056-.296 4.026-.94 5.856-1.917.491-.259 1.093-.074 1.354.412.26.487.075 1.094-.412 1.354-2.036 1.085-4.228 1.802-6.513 2.132-.049.006-.097.009-.144.009z"/></g></g><g id="ARC_422_"><g><path d="m39.354 33.429c-.188 0-.377-.053-.545-.162-.463-.302-.594-.921-.292-1.384 1.417-2.173 3.811-3.471 6.405-3.471.553 0 1 .447 1 1s-.447 1-1 1c-1.916 0-3.684.958-4.729 2.563-.191.294-.511.454-.839.454z"/></g></g><g id="CIRCLE_38_"><g><path d="m47.139 30.412c-3.545 0-6.539-2.994-6.539-6.538s2.994-6.538 6.539-6.538c3.544 0 6.538 2.994 6.538 6.538s-2.994 6.538-6.538 6.538zm0-11.076c-2.46 0-4.539 2.078-4.539 4.538s2.079 4.538 4.539 4.538 4.538-2.078 4.538-4.538-2.078-4.538-4.538-4.538z"/></g></g><g id="ARC_421_"><g><path d="m56 37.059c-.553 0-1-.447-1-1 0-3.113-2.533-5.646-5.646-5.646-.553 0-1-.447-1-1s.447-1 1-1c4.216 0 7.646 3.431 7.646 7.646 0 .552-.447 1-1 1z"/></g></g><g id="LINE_818_"><g><path d="m49.354 30.412h-4.431c-.553 0-1-.447-1-1s.447-1 1-1h4.431c.553 0 1 .447 1 1s-.448 1-1 1z"/></g></g><g id="LINE_817_"><g><path d="m56 40.382c-.553 0-1-.447-1-1v-3.323c0-.553.447-1 1-1s1 .447 1 1v3.323c0 .553-.447 1-1 1z"/></g></g><g id="ARC_420_"><g><path d="m20.185 41.12c-.553 0-1-.447-1-1 0-5.438 4.424-9.861 9.861-9.861.553 0 1 .447 1 1s-.447 1-1 1c-4.335 0-7.861 3.526-7.861 7.861 0 .553-.448 1-1 1z"/></g></g><g id="LINE_816_"><g><path d="m34.954 32.259h-5.908c-.553 0-1-.447-1-1s.447-1 1-1h5.908c.553 0 1 .447 1 1s-.447 1-1 1z"/></g></g><g id="ARC_419_"><g><path d="m24.646 33.429c-.327 0-.647-.16-.839-.454-1.046-1.604-2.813-2.563-4.729-2.563-.553 0-1-.447-1-1s.447-1 1-1c2.595 0 4.988 1.298 6.405 3.471.302.463.171 1.082-.292 1.384-.169.109-.358.162-.545.162z"/></g></g><g id="LINE_815_"><g><path d="m20.185 45.551c-.553 0-1-.447-1-1v-4.431c0-.553.447-1 1-1s1 .447 1 1v4.431c0 .553-.448 1-1 1z"/></g></g><g id="CIRCLE_37_"><g><path d="m32 32.259c-4.545 0-8.385-3.84-8.385-8.385s3.84-8.385 8.385-8.385 8.385 3.84 8.385 8.385-3.84 8.385-8.385 8.385zm0-14.77c-3.461 0-6.385 2.924-6.385 6.385s2.924 6.385 6.385 6.385 6.385-2.924 6.385-6.385-2.924-6.385-6.385-6.385z"/></g></g><g id="ARC_418_"><g><path d="m43.815 41.12c-.553 0-1-.447-1-1 0-4.335-3.526-7.861-7.861-7.861-.553 0-1-.447-1-1s.447-1 1-1c5.438 0 9.861 4.424 9.861 9.861 0 .553-.447 1-1 1z"/></g></g><g id="LINE_814_"><g><path d="m43.815 45.551c-.553 0-1-.447-1-1v-4.431c0-.553.447-1 1-1s1 .447 1 1v4.431c0 .553-.447 1-1 1z"/></g></g><g id="ARC_417_"><g><path d="m32 48.511c-4.22 0-8.439-1.026-12.286-3.077-.487-.261-.672-.866-.412-1.354.261-.486.863-.671 1.354-.412 7.104 3.789 15.586 3.789 22.689 0 .49-.259 1.094-.074 1.354.412.26.487.075 1.093-.412 1.354-3.848 2.05-8.067 3.077-12.287 3.077z"/></g></g><g id="CIRCLE_36_"><g><path d="m16.861 30.412c-3.544 0-6.538-2.994-6.538-6.538s2.994-6.538 6.538-6.538 6.538 2.994 6.538 6.538-2.994 6.538-6.538 6.538zm0-11.076c-2.46 0-4.538 2.078-4.538 4.538s2.078 4.538 4.538 4.538 4.538-2.078 4.538-4.538-2.078-4.538-4.538-4.538z"/></g></g><g id="ARC_416_"><g><path d="m8 37.059c-.553 0-1-.447-1-1 0-4.216 3.431-7.646 7.646-7.646.553 0 1 .447 1 1s-.447 1-1 1c-3.113-.001-5.646 2.532-5.646 5.646 0 .552-.447 1-1 1z"/></g></g><g id="LINE_813_"><g><path d="m19.077 30.412h-4.431c-.553 0-1-.447-1-1s.447-1 1-1h4.431c.553 0 1 .447 1 1s-.447 1-1 1z"/></g></g><g id="LINE_812_"><g><path d="m8 40.382c-.553 0-1-.447-1-1v-3.323c0-.553.447-1 1-1s1 .447 1 1v3.323c0 .553-.447 1-1 1z"/></g></g></g></g>
</symbol>

<symbol id="plus-icon" viewBox="0 0 426.66667 426.66667" >
<path d="m405.332031 192h-170.664062v-170.667969c0-11.773437-9.558594-21.332031-21.335938-21.332031-11.773437 0-21.332031 9.558594-21.332031 21.332031v170.667969h-170.667969c-11.773437 0-21.332031 9.558594-21.332031 21.332031 0 11.777344 9.558594 21.335938 21.332031 21.335938h170.667969v170.664062c0 11.777344 9.558594 21.335938 21.332031 21.335938 11.777344 0 21.335938-9.558594 21.335938-21.335938v-170.664062h170.664062c11.777344 0 21.335938-9.558594 21.335938-21.335938 0-11.773437-9.558594-21.332031-21.335938-21.332031zm0 0"/>
</symbol>

<symbol id="quotes-icon" viewBox="0 0 100 100">
<path d="m23.859026 16.8767757c-11.798316 0-21.359026 9.5607052-21.359026 21.3590298 0 11.1880608 8.5436096 20.1385117 19.3248348 21.1556053-2.2376099 4.0683899-6.1025782 8.3401871-13.0188351 12.408577-1.8307738 1.0170975-3.0512896 3.0512848-3.0512896 5.2888947 0 4.2718048 4.4752254 7.3230972 8.3401899 5.4923248 11.5949039-5.2889023 30.919733-17.9008942 30.919733-44.3454018.0000002-12.0017414-9.3572844-21.3590298-21.155607-21.3590298z"/><path d="m76.3412094 16.8767757c-11.798317 0-21.3590202 9.5607052-21.3590202 21.3590298 0 11.1880608 8.5436096 20.1385117 19.3248329 21.1556053-2.2376099 4.0683899-6.1025772 8.3401871-13.0188408 12.408577-1.8307762 1.0170975-3.0512848 3.0512848-3.0512848 5.2888947 0 4.2718048 4.4752197 7.3230972 8.3401909 5.4923248 11.5948944-5.2889023 30.9197235-17.9008942 30.9197235-44.3454018.2034302-12.0017414-9.3572845-21.3590298-21.1556015-21.3590298z"/>
</symbol>

<symbol id="facebook-icon" viewBox="0 0 512 512">
<path d="m255.1824 7.7579q69.23.79 125.0851 34.0293a249.7343 249.7343 0 0 1 88.8909 89.4346q33.0371 56.1914 33.8244 125.8428-1.962 95.3-60.1167 162.791c-38.77 44.9941-88.425 72.83-139.8274 83.5009v-178.1275h48.5969l10.99-70h-73.5869v-45.8481a39.844 39.844 0 0 1 8.4739-26.3232q8.8275-11.2527 31.0895-11.8287h44.4366v-61.3184q-.9563-.3077-18.15-2.4336a360.7434 360.7434 0 0 0 -39.16-2.4336q-44.4328.205-70.2811 25.0674-25.8488 24.8554-26.4085 71.9209v53.1973h-56v70h56v178.1275c-63.1149-10.6709-112.77-38.5068-151.54-83.5009s-58.808-99.2578-60.1162-162.791q.7851-69.6546 33.8236-125.8428a249.7389 249.7389 0 0 1 88.8917-89.4346q55.8534-33.2329 125.0842-34.0293z" fill-rule="evenodd"/>
</symbol>

<symbol id="instagram-icon" viewBox="0 0 511 511.9">
<path d="m510.949219 150.5c-1.199219-27.199219-5.597657-45.898438-11.898438-62.101562-6.5-17.199219-16.5-32.597657-29.601562-45.398438-12.800781-13-28.300781-23.101562-45.300781-29.5-16.296876-6.300781-34.898438-10.699219-62.097657-11.898438-27.402343-1.300781-36.101562-1.601562-105.601562-1.601562s-78.199219.300781-105.5 1.5c-27.199219 1.199219-45.898438 5.601562-62.097657 11.898438-17.203124 6.5-32.601562 16.5-45.402343 29.601562-13 12.800781-23.097657 28.300781-29.5 45.300781-6.300781 16.300781-10.699219 34.898438-11.898438 62.097657-1.300781 27.402343-1.601562 36.101562-1.601562 105.601562s.300781 78.199219 1.5 105.5c1.199219 27.199219 5.601562 45.898438 11.902343 62.101562 6.5 17.199219 16.597657 32.597657 29.597657 45.398438 12.800781 13 28.300781 23.101562 45.300781 29.5 16.300781 6.300781 34.898438 10.699219 62.101562 11.898438 27.296876 1.203124 36 1.5 105.5 1.5s78.199219-.296876 105.5-1.5c27.199219-1.199219 45.898438-5.597657 62.097657-11.898438 34.402343-13.300781 61.601562-40.5 74.902343-74.898438 6.296876-16.300781 10.699219-34.902343 11.898438-62.101562 1.199219-27.300781 1.5-36 1.5-105.5s-.101562-78.199219-1.300781-105.5zm-46.097657 209c-1.101562 25-5.300781 38.5-8.800781 47.5-8.601562 22.300781-26.300781 40-48.601562 48.601562-9 3.5-22.597657 7.699219-47.5 8.796876-27 1.203124-35.097657 1.5-103.398438 1.5s-76.5-.296876-103.402343-1.5c-25-1.097657-38.5-5.296876-47.5-8.796876-11.097657-4.101562-21.199219-10.601562-29.398438-19.101562-8.5-8.300781-15-18.300781-19.101562-29.398438-3.5-9-7.699219-22.601562-8.796876-47.5-1.203124-27-1.5-35.101562-1.5-103.402343s.296876-76.5 1.5-103.398438c1.097657-25 5.296876-38.5 8.796876-47.5 4.101562-11.101562 10.601562-21.199219 19.203124-29.402343 8.296876-8.5 18.296876-15 29.398438-19.097657 9-3.5 22.601562-7.699219 47.5-8.800781 27-1.199219 35.101562-1.5 103.398438-1.5 68.402343 0 76.5.300781 103.402343 1.5 25 1.101562 38.5 5.300781 47.5 8.800781 11.097657 4.097657 21.199219 10.597657 29.398438 19.097657 8.5 8.300781 15 18.300781 19.101562 29.402343 3.5 9 7.699219 22.597657 8.800781 47.5 1.199219 27 1.5 35.097657 1.5 103.398438s-.300781 76.300781-1.5 103.300781zm0 0"/><path d="m256.449219 124.5c-72.597657 0-131.5 58.898438-131.5 131.5s58.902343 131.5 131.5 131.5c72.601562 0 131.5-58.898438 131.5-131.5s-58.898438-131.5-131.5-131.5zm0 216.800781c-47.097657 0-85.300781-38.199219-85.300781-85.300781s38.203124-85.300781 85.300781-85.300781c47.101562 0 85.300781 38.199219 85.300781 85.300781s-38.199219 85.300781-85.300781 85.300781zm0 0"/><path d="m423.851562 119.300781c0 16.953125-13.746093 30.699219-30.703124 30.699219-16.953126 0-30.699219-13.746094-30.699219-30.699219 0-16.957031 13.746093-30.699219 30.699219-30.699219 16.957031 0 30.703124 13.742188 30.703124 30.699219zm0 0"/>
</symbol>

<symbol id="Phone-icon" viewBox="0 0 482.6 482.6">
<g>
	<path d="M98.339,320.8c47.6,56.9,104.9,101.7,170.3,133.4c24.9,11.8,58.2,25.8,95.3,28.2c2.3,0.1,4.5,0.2,6.8,0.2   c24.9,0,44.9-8.6,61.2-26.3c0.1-0.1,0.3-0.3,0.4-0.5c5.8-7,12.4-13.3,19.3-20c4.7-4.5,9.5-9.2,14.1-14   c21.3-22.2,21.3-50.4-0.2-71.9l-60.1-60.1c-10.2-10.6-22.4-16.2-35.2-16.2c-12.8,0-25.1,5.6-35.6,16.1l-35.8,35.8   c-3.3-1.9-6.7-3.6-9.9-5.2c-4-2-7.7-3.9-11-6c-32.6-20.7-62.2-47.7-90.5-82.4c-14.3-18.1-23.9-33.3-30.6-48.8   c9.4-8.5,18.2-17.4,26.7-26.1c3-3.1,6.1-6.2,9.2-9.3c10.8-10.8,16.6-23.3,16.6-36s-5.7-25.2-16.6-36l-29.8-29.8   c-3.5-3.5-6.8-6.9-10.2-10.4c-6.6-6.8-13.5-13.8-20.3-20.1c-10.3-10.1-22.4-15.4-35.2-15.4c-12.7,0-24.9,5.3-35.6,15.5l-37.4,37.4   c-13.6,13.6-21.3,30.1-22.9,49.2c-1.9,23.9,2.5,49.3,13.9,80C32.739,229.6,59.139,273.7,98.339,320.8z M25.739,104.2   c1.2-13.3,6.3-24.4,15.9-34l37.2-37.2c5.8-5.6,12.2-8.5,18.4-8.5c6.1,0,12.3,2.9,18,8.7c6.7,6.2,13,12.7,19.8,19.6   c3.4,3.5,6.9,7,10.4,10.6l29.8,29.8c6.2,6.2,9.4,12.5,9.4,18.7s-3.2,12.5-9.4,18.7c-3.1,3.1-6.2,6.3-9.3,9.4   c-9.3,9.4-18,18.3-27.6,26.8c-0.2,0.2-0.3,0.3-0.5,0.5c-8.3,8.3-7,16.2-5,22.2c0.1,0.3,0.2,0.5,0.3,0.8   c7.7,18.5,18.4,36.1,35.1,57.1c30,37,61.6,65.7,96.4,87.8c4.3,2.8,8.9,5,13.2,7.2c4,2,7.7,3.9,11,6c0.4,0.2,0.7,0.4,1.1,0.6   c3.3,1.7,6.5,2.5,9.7,2.5c8,0,13.2-5.1,14.9-6.8l37.4-37.4c5.8-5.8,12.1-8.9,18.3-8.9c7.6,0,13.8,4.7,17.7,8.9l60.3,60.2   c12,12,11.9,25-0.3,37.7c-4.2,4.5-8.6,8.8-13.3,13.3c-7,6.8-14.3,13.8-20.9,21.7c-11.5,12.4-25.2,18.2-42.9,18.2   c-1.7,0-3.5-0.1-5.2-0.2c-32.8-2.1-63.3-14.9-86.2-25.8c-62.2-30.1-116.8-72.8-162.1-127c-37.3-44.9-62.4-86.7-79-131.5   C28.039,146.4,24.139,124.3,25.739,104.2z"/>
</g><g>
</g><g>
</g><g>
</g><g>
</g><g>
</g><g>
</g><g>
</g><g>
</g><g>
</g><g>
</g><g>
</g><g>
</g><g>
</g><g>
</g><g>
</g>
</symbol>

<symbol id="start-icon" viewBox="0 0 32 32">
<g id="star"><path d="m29.911 13.75-6.229 6.072 1.471 8.576c.064.375-.09.754-.398.978-.174.127-.381.191-.588.191-.159 0-.319-.038-.465-.115l-7.702-4.049-7.701 4.048c-.336.178-.745.149-1.053-.076-.308-.224-.462-.603-.398-.978l1.471-8.576-6.23-6.071c-.272-.266-.371-.664-.253-1.025s.431-.626.808-.681l8.609-1.25 3.85-7.802c.337-.683 1.457-.683 1.794 0l3.85 7.802 8.609 1.25c.377.055.69.319.808.681s.019.758-.253 1.025z"/></g>
</symbol>

<symbol id="chat-icon" viewBox="0 0 512 512">
<g>
	<g>
		<path d="M317,31.022H45c-24.901,0-45,20.099-45,45v180c0,24.899,20.099,45,45,45h15v45c0,10.837,11.221,18.685,22.2,13.2    c0.3-0.3,0.901-0.3,1.201-0.601c82.516-55.335,64.023-42.997,82.5-55.2c2.399-1.5,5.099-2.399,8.099-2.399h143    c24.901,0,45-20.101,45-45v-180C362,51.121,341.901,31.022,317,31.022z M197,211.022H75c-19.773,0-19.854-30,0-30h122    C216.773,181.022,216.854,211.022,197,211.022z M287,151.022H75c-19.773,0-19.854-30,0-30h212    C306.773,121.022,306.854,151.022,287,151.022z"/>
	</g>
</g><g>
	<g>
		<path d="M467,151.022h-75v105c0,41.4-33.6,75-75,75H178.5l-28.5,18.9v26.1c0,24.899,20.099,45,45,45h147.499l86.1,57.599    c11.752,6.525,23.401-1.41,23.401-12.599v-45h15c24.901,0,45-20.101,45-45v-180C512,171.122,491.901,151.022,467,151.022z"/>
	</g>
</g><g>
</g><g>
</g><g>
</g><g>
</g><g>
</g><g>
</g><g>
</g><g>
</g><g>
</g><g>
</g><g>
</g><g>
</g><g>
</g><g>
</g><g>
</g>
</symbol>

<symbol id="time-icon" viewBox="0 0 24 24">
<g id="Layer_2" data-name="Layer 2"><path d="m12 1a11 11 0 1 0 11 11 11.013 11.013 0 0 0 -11-11zm3.707 14.707a1 1 0 0 1 -1.414 0l-3-3a1 1 0 0 1 -.293-.707v-6a1 1 0 0 1 2 0v5.586l2.707 2.707a1 1 0 0 1 0 1.414z"/></g>
</symbol>

</svg>






